<?xml version="1.0" standalone="no"?>
<!DOCTYPE svg PUBLIC "-//W3C//DTD SVG 20010904//EN"
 "http://www.w3.org/TR/2001/REC-SVG-20010904/DTD/svg10.dtd">
<svg version="1.0" xmlns="http://www.w3.org/2000/svg"
 width="712.000000pt" height="712.000000pt" viewBox="0 0 712.000000 712.000000"
 preserveAspectRatio="xMidYMid meet">
<metadata>
Created by potrace 1.14, written by Peter Selinger 2001-2017
</metadata>
<g transform="translate(0.000000,712.000000) scale(0.100000,-0.100000)"
fill="#000000" stroke="none">
<path d="M2035 6348 c-7 -22 -56 -159 -92 -258 -19 -52 -36 -99 -37 -105 -2
-5 -6 -17 -9 -25 -10 -23 -139 -384 -141 -395 -1 -5 -10 -27 -19 -49 -9 -21
-17 -41 -17 -45 0 -3 -16 -49 -36 -101 -19 -52 -37 -102 -39 -110 -4 -14 -92
-258 -155 -430 -32 -89 -37 -103 -38 -110 0 -3 -6 -18 -12 -35 -7 -16 -28 -73
-47 -125 -19 -52 -52 -144 -74 -205 -23 -60 -42 -114 -43 -120 -2 -5 -8 -23
-14 -38 -7 -16 -12 -32 -12 -37 0 -5 -7 -24 -14 -42 -8 -18 -29 -73 -46 -123
-17 -49 -35 -99 -40 -110 -5 -11 -13 -33 -18 -50 -15 -44 -131 -367 -139 -385
-3 -8 -7 -19 -9 -25 -1 -5 -30 -86 -63 -180 -34 -93 -96 -264 -137 -380 -42
-115 -82 -226 -89 -245 -7 -19 -27 -75 -45 -125 -17 -49 -36 -99 -41 -110 -5
-11 -22 -58 -38 -105 -33 -97 -104 -296 -149 -417 -17 -46 -28 -83 -25 -83 3
0 1 -6 -5 -13 -5 -6 -17 -32 -25 -57 -23 -67 -96 -273 -103 -290 -4 -8 -27
-71 -51 -140 -82 -228 -110 -305 -122 -333 -6 -16 -11 -34 -11 -41 0 -6 -5
-17 -12 -24 -7 -7 -9 -12 -5 -12 4 0 2 -10 -5 -22 -6 -13 -13 -27 -14 -33 -1
-5 -3 -17 -5 -24 -4 -13 57 -15 434 -16 241 0 443 2 448 5 5 4 22 44 38 91
128 371 204 591 217 629 8 25 18 52 21 60 3 8 37 105 74 215 38 110 72 207 76
215 3 8 7 20 8 26 2 5 18 55 38 110 19 54 37 105 39 113 3 11 184 13 1077 13
590 0 1076 -4 1080 -8 5 -5 20 -45 35 -89 15 -44 31 -89 36 -100 5 -11 27 -74
50 -140 23 -66 45 -129 50 -140 9 -20 23 -60 85 -235 18 -52 63 -176 100 -275
36 -99 68 -187 70 -195 2 -8 20 -60 40 -115 20 -55 43 -118 51 -141 l15 -40
449 0 c364 0 450 2 450 13 0 7 -11 41 -24 75 -13 35 -36 97 -51 138 -15 41
-29 82 -32 90 -3 8 -7 20 -9 25 -5 19 -43 120 -57 155 -9 19 -16 40 -17 45 -3
12 -1 5 -41 115 -17 47 -34 96 -36 110 -3 14 -9 30 -13 35 -4 6 -15 35 -25 65
-10 30 -22 61 -28 67 -5 7 -7 13 -4 13 3 0 -6 28 -19 62 -14 35 -38 101 -55
148 -16 47 -32 92 -36 100 -3 8 -7 17 -8 20 -1 3 -4 12 -8 20 -3 8 -13 35 -21
60 -15 46 -63 179 -134 375 -22 61 -74 207 -116 325 -42 118 -81 224 -85 235
-5 11 -14 34 -19 50 -36 100 -156 437 -169 470 -8 22 -21 60 -29 85 -8 25 -19
54 -24 65 -10 25 -22 57 -26 70 -1 6 -17 48 -34 95 -17 47 -38 103 -45 125 -7
22 -27 78 -45 125 -17 47 -35 96 -40 110 -12 39 -139 392 -151 420 -6 14 -19
50 -29 80 -18 56 -85 243 -97 270 -3 8 -7 20 -8 25 -2 6 -19 53 -38 105 -30
80 -153 422 -189 525 -5 17 -14 39 -18 50 -17 44 -84 235 -165 470 l-51 150
-492 3 c-389 2 -493 0 -497 -10z m514 -1204 c27 -76 66 -186 86 -244 20 -58
40 -114 45 -125 5 -11 32 -85 60 -165 28 -80 57 -161 65 -180 8 -19 55 -150
105 -290 204 -570 271 -757 300 -835 43 -114 120 -332 120 -337 0 -3 -53 -6
-117 -7 -124 -1 -135 -1 -276 2 -49 1 -91 -1 -94 -6 -2 -4 -9 -4 -15 0 -7 3
-129 6 -272 5 -144 -1 -277 -2 -296 -1 -19 0 -155 1 -302 1 -289 1 -280 -1
-256 55 6 15 12 30 13 33 12 40 36 111 100 295 86 248 152 439 185 535 12 36
25 74 30 85 5 11 27 74 49 140 45 134 143 415 160 458 6 15 8 27 5 27 -4 0 -2
6 4 13 5 6 17 35 25 62 20 63 153 451 160 462 7 12 20 67 19 76 -1 4 3 7 8 7
6 0 10 7 10 15 0 16 22 67 26 62 2 -2 26 -66 53 -143z"/>
<path d="M6129 6173 c-35 -104 -64 -190 -65 -193 0 -3 -4 -13 -7 -22 -4 -10
-10 -26 -13 -35 -3 -10 -55 -162 -115 -338 -60 -176 -111 -326 -114 -333 -2
-7 -4 -13 -4 -15 0 -1 -12 -33 -26 -72 -14 -38 -28 -77 -30 -85 -2 -8 -53
-159 -113 -335 -61 -176 -118 -342 -127 -370 -9 -27 -19 -57 -22 -65 -3 -8 -7
-19 -9 -25 -4 -16 -155 -459 -161 -475 -4 -8 -7 -18 -8 -22 -2 -5 -3 -9 -4
-11 -5 -11 -143 -415 -146 -427 -5 -18 -134 -395 -136 -395 0 0 -3 -15 -5 -32
-3 -20 3 -51 15 -79 12 -26 21 -51 21 -56 0 -6 6 -24 14 -41 8 -18 58 -153
111 -302 53 -148 117 -326 141 -395 25 -69 59 -163 75 -210 16 -46 34 -88 39
-92 5 -5 8 -5 5 -2 -3 4 -1 12 4 18 5 6 22 52 39 101 17 50 67 191 112 315 45
124 88 243 95 265 7 22 19 54 26 70 6 17 13 35 14 40 2 6 17 48 35 95 17 47
33 90 34 95 2 6 6 17 9 25 3 8 26 71 51 140 24 69 83 233 131 365 48 132 93
260 101 285 8 25 19 54 24 65 5 11 61 166 125 345 64 179 118 332 122 340 7
19 73 201 77 215 4 14 16 46 26 70 5 11 34 92 65 180 31 88 77 216 102 285
103 284 175 486 177 495 2 6 8 21 14 35 10 23 66 179 68 190 0 3 4 12 7 20 4
8 20 55 37 104 18 49 36 100 42 115 6 14 13 34 15 44 1 10 9 30 17 45 7 15 17
41 21 57 10 36 10 35 20 60 24 59 45 117 45 125 0 6 -170 10 -454 10 l-454 0
-63 -187z"/>
</g>
</svg>
