<?xml version="1.0" standalone="no"?>
<!DOCTYPE svg PUBLIC "-//W3C//DTD SVG 20010904//EN"
 "http://www.w3.org/TR/2001/REC-SVG-20010904/DTD/svg10.dtd">
<svg version="1.0" xmlns="http://www.w3.org/2000/svg"
 width="728.000000pt" height="728.000000pt" viewBox="0 0 728.000000 728.000000"
 preserveAspectRatio="xMidYMid meet">
<metadata>
Created by potrace 1.14, written by Peter Selinger 2001-2017
</metadata>
<g transform="translate(0.000000,728.000000) scale(0.100000,-0.100000)"
fill="#000000" stroke="none">
<path d="M2195 6423 c-4 -10 -36 -99 -71 -198 -35 -99 -69 -191 -75 -205 -6
-14 -22 -59 -35 -100 -13 -41 -28 -84 -34 -95 -5 -11 -32 -85 -60 -165 -28
-80 -55 -154 -59 -165 -12 -27 -55 -148 -57 -160 -1 -5 -8 -23 -15 -40 -6 -16
-13 -34 -15 -40 -1 -5 -19 -55 -39 -110 -48 -132 -106 -293 -200 -555 -42
-118 -96 -269 -120 -335 -24 -66 -69 -192 -100 -280 -32 -88 -61 -169 -65
-180 -21 -53 -35 -90 -35 -95 0 -3 -13 -38 -29 -78 -15 -39 -29 -78 -30 -85
-2 -6 -6 -19 -9 -27 -10 -25 -76 -207 -119 -330 -22 -63 -46 -130 -55 -149 -8
-18 -16 -39 -18 -45 -1 -6 -4 -18 -7 -26 -22 -59 -53 -146 -54 -150 0 -3 -6
-18 -12 -33 -7 -16 -12 -33 -12 -38 0 -5 -4 -17 -9 -27 -5 -9 -26 -64 -46
-122 -20 -58 -39 -112 -42 -120 -4 -8 -7 -17 -8 -20 -1 -3 -7 -18 -13 -33 -7
-16 -12 -31 -12 -33 0 -6 -53 -155 -152 -424 -33 -91 -61 -169 -62 -175 -2
-10 -21 -62 -62 -170 -12 -33 -51 -139 -85 -235 -34 -96 -80 -224 -101 -285
-22 -60 -50 -138 -63 -172 -14 -41 -18 -63 -11 -66 10 -3 860 -1 878 2 5 1 35
77 43 111 1 3 5 12 8 20 7 17 98 281 129 375 11 33 22 67 25 75 3 8 7 20 9 25
1 6 9 27 18 48 9 20 13 37 10 37 -4 0 -2 6 4 13 5 6 14 28 20 47 6 19 38 114
72 210 34 96 64 186 67 200 3 14 9 30 13 35 5 6 13 30 20 54 6 24 16 55 22 70
6 14 21 55 33 89 l21 64 1073 0 c880 0 1075 -2 1082 -13 4 -7 51 -135 104
-284 53 -148 101 -279 106 -290 4 -11 29 -78 54 -150 75 -214 88 -249 98 -275
6 -14 11 -29 13 -35 4 -17 85 -239 94 -260 5 -11 18 -49 30 -85 12 -36 26 -70
30 -76 9 -10 907 -15 903 -4 -1 3 -6 18 -12 33 -6 16 -11 30 -11 33 0 4 -154
433 -190 529 -10 28 -42 115 -70 195 -28 80 -58 159 -66 177 -8 17 -14 36 -14
42 0 6 -7 25 -15 43 -8 18 -37 98 -65 178 -28 80 -60 169 -71 198 -47 128 -68
188 -154 427 -25 72 -50 138 -56 147 -5 10 -9 26 -9 36 0 10 -4 22 -8 27 -4 6
-14 28 -21 50 -14 44 -48 139 -61 170 -5 11 -16 40 -24 65 -8 25 -21 63 -29
85 -8 22 -18 49 -23 60 -4 11 -8 27 -10 35 -2 8 -7 23 -13 35 -9 19 -94 252
-201 555 -48 137 -74 209 -105 290 -7 19 -39 107 -70 195 -98 277 -117 329
-131 362 -8 17 -14 35 -14 40 0 4 -18 54 -39 111 -22 56 -39 104 -40 105 0 3
-11 36 -18 55 -3 9 -7 19 -8 22 -5 20 -19 60 -30 85 -7 17 -22 59 -34 95 -12
36 -26 74 -31 85 -4 11 -13 36 -20 55 -7 19 -16 44 -21 55 -4 11 -15 40 -23
65 -8 25 -26 75 -40 113 -14 37 -23 67 -20 67 3 0 -2 12 -10 28 -16 29 -41 99
-131 362 -31 91 -64 188 -74 215 l-18 50 -491 3 c-460 2 -490 1 -497 -15z
m480 -1108 c7 -16 43 -113 79 -215 36 -102 77 -216 91 -255 15 -38 28 -74 29
-80 2 -5 6 -17 9 -25 7 -15 86 -237 91 -255 2 -5 6 -17 9 -25 4 -8 25 -67 48
-130 22 -63 62 -176 89 -250 27 -74 69 -191 93 -260 25 -69 61 -170 82 -225
20 -55 48 -134 62 -175 14 -41 31 -88 38 -105 16 -36 76 -205 79 -222 1 -7 5
-16 9 -19 30 -30 3 -31 -817 -31 -752 0 -824 1 -819 16 4 9 10 21 14 26 4 6 8
15 8 20 1 11 19 70 28 95 3 8 7 20 9 25 1 6 32 96 69 200 36 105 77 222 90
260 13 39 41 120 62 180 22 61 41 115 42 120 2 6 6 17 8 25 3 8 9 24 13 35 5
11 23 65 41 120 18 55 37 106 42 113 5 6 6 12 3 12 -4 0 -2 9 4 21 6 11 13 28
15 37 2 9 33 100 69 202 35 102 94 273 131 380 36 107 70 204 75 215 4 11 20
56 36 100 43 125 46 132 51 115 3 -8 11 -28 18 -45z"/>
<path d="M6316 6333 c-20 -60 -39 -115 -41 -123 -3 -14 -90 -267 -102 -300 -4
-8 -7 -17 -8 -20 0 -3 -12 -36 -25 -75 -13 -38 -25 -72 -25 -75 -1 -3 -5 -13
-8 -22 -17 -44 -20 -54 -23 -66 -3 -15 -62 -188 -74 -217 -11 -27 -72 -207
-74 -220 -2 -10 -32 -95 -46 -130 -5 -11 -43 -123 -85 -250 -42 -126 -80 -239
-85 -250 -5 -11 -48 -135 -96 -275 -47 -140 -99 -293 -115 -340 -16 -47 -31
-93 -34 -103 -2 -9 -7 -22 -10 -27 -3 -5 -8 -18 -10 -27 -2 -10 -17 -56 -34
-103 -248 -714 -253 -731 -221 -789 5 -9 27 -68 49 -131 22 -63 65 -182 96
-265 31 -82 57 -157 60 -167 2 -9 20 -61 40 -115 21 -54 38 -102 40 -108 1 -5
7 -23 14 -38 6 -16 30 -82 53 -148 23 -65 45 -119 48 -119 4 0 32 71 63 157
59 168 124 348 133 373 3 8 5 16 6 17 0 1 22 62 49 135 27 73 64 176 81 228
18 52 35 97 38 100 3 3 6 12 8 20 1 8 11 38 22 65 10 28 73 203 140 390 66
187 125 349 130 360 4 11 14 36 20 55 17 51 64 182 100 280 18 47 33 90 34 95
4 12 13 39 31 85 8 19 27 73 43 120 17 47 45 128 65 180 19 52 53 149 77 215
23 66 46 129 50 140 5 11 52 142 105 290 53 149 100 279 104 290 5 11 26 67
46 125 20 58 42 121 50 140 29 75 265 735 265 743 0 4 -204 7 -453 7 l-454 0
-37 -107z"/>
</g>
</svg>
